<svg xmlns="http://www.w3.org/2000/svg" viewBox="0 0 256 256" role="img" aria-label="Shadow Flight bee icon">
  <defs>
    <filter id="shadow" x="-20%" y="-20%" width="140%" height="140%">
      <feDropShadow dx="0" dy="6" stdDeviation="6" flood-color="#000000" flood-opacity="0.3"/>
    </filter>
  </defs>
  <g filter="url(#shadow)" stroke="#0f1622" stroke-width="7" stroke-linecap="round" stroke-linejoin="round">
    <ellipse cx="92" cy="101" rx="31" ry="24" fill="#ffffff"/>
    <ellipse cx="164" cy="101" rx="31" ry="24" fill="#ffffff"/>
    <path d="M107 71c-7-14-18-20-30-24" fill="none"/>
    <path d="M149 71c7-14 18-20 30-24" fill="none"/>
    <ellipse cx="128" cy="117" rx="43" ry="48" fill="#101722"/>
    <circle cx="112" cy="109" r="8" fill="#ffffff" stroke="none"/>
    <circle cx="144" cy="109" r="8" fill="#ffffff" stroke="none"/>
    <path d="M103 137h50" fill="none"/>
    <path d="M99 153h58" fill="none"/>
    <path d="M103 169h50" fill="none"/>
    <path d="m82 176 28-6 21 14-26 14z" fill="#f3bf3d"/>
    <path d="m132 185 45-38" fill="none" stroke="#d7def0"/>
    <path d="m174 150 11-2-3 11" fill="none" stroke="#d7def0"/>
  </g>
</svg>
