<svg xmlns="http://www.w3.org/2000/svg" viewBox="0 0 256 256" role="img" aria-label="Validation Lab bee icon">
  <defs>
    <filter id="shadow" x="-20%" y="-20%" width="140%" height="140%">
      <feDropShadow dx="0" dy="6" stdDeviation="6" flood-color="#000000" flood-opacity="0.28"/>
    </filter>
  </defs>
  <g filter="url(#shadow)" stroke="#0f1622" stroke-width="7" stroke-linecap="round" stroke-linejoin="round">
    <ellipse cx="92" cy="102" rx="32" ry="24" fill="#ffffff"/>
    <ellipse cx="164" cy="102" rx="32" ry="24" fill="#ffffff"/>
    <path d="M108 71c-8-13-17-20-31-24" fill="none"/>
    <path d="M148 71c8-13 17-20 31-24" fill="none"/>
    <ellipse cx="128" cy="117" rx="43" ry="48" fill="#101722"/>
    <circle cx="112" cy="110" r="8" fill="#ffffff" stroke="none"/>
    <circle cx="144" cy="110" r="8" fill="#ffffff" stroke="none"/>
    <path d="M102 137h52" fill="none"/>
    <path d="M98 153h60" fill="none"/>
    <path d="M104 169h48" fill="none"/>
    <path d="M119 53h18l7 12-16 11-16-11z" fill="#f3bf3d"/>
    <path d="M86 178h84v42H86z" fill="#ffffff"/>
    <path d="m100 198 16 16 40-32" fill="none" stroke="#f3bf3d" stroke-width="12"/>
  </g>
</svg>
