<svg xmlns="http://www.w3.org/2000/svg" viewBox="0 0 256 256" role="img" aria-label="Protection worker bee icon">
  <defs>
    <filter id="shadow" x="-20%" y="-20%" width="140%" height="140%">
      <feDropShadow dx="0" dy="6" stdDeviation="6" flood-color="#000000" flood-opacity="0.28"/>
    </filter>
  </defs>
  <g filter="url(#shadow)" stroke="#0f1622" stroke-width="7" stroke-linecap="round" stroke-linejoin="round">
    <ellipse cx="92" cy="101" rx="31" ry="24" fill="#ffffff"/>
    <ellipse cx="164" cy="101" rx="31" ry="24" fill="#ffffff"/>
    <path d="M107 71c-7-14-18-20-30-24" fill="none"/>
    <path d="M149 71c7-14 18-20 30-24" fill="none"/>
    <ellipse cx="118" cy="117" rx="38" ry="47" fill="#101722"/>
    <circle cx="104" cy="109" r="8" fill="#ffffff" stroke="none"/>
    <circle cx="132" cy="109" r="8" fill="#ffffff" stroke="none"/>
    <path d="M95 137h46" fill="none"/>
    <path d="M92 153h52" fill="none"/>
    <path d="M96 169h44" fill="none"/>
    <path d="M142 107h48v58h-48z" fill="#f3bf3d"/>
    <path d="m166 117-15 10v12c0 13 8 21 15 26 7-5 15-13 15-26v-12z" fill="#ffffff"/>
  </g>
</svg>
